<?xml version="1.0" standalone="no"?>
<!DOCTYPE svg PUBLIC "-//W3C//DTD SVG 20010904//EN"
 "http://www.w3.org/TR/2001/REC-SVG-20010904/DTD/svg10.dtd">
<svg version="1.0" xmlns="http://www.w3.org/2000/svg"
 width="1024.000000pt" height="1024.000000pt" viewBox="0 0 1024.000000 1024.000000"
 preserveAspectRatio="xMidYMid meet">
<metadata>
Created by potrace 1.14, written by Peter Selinger 2001-2017
</metadata>
<g transform="translate(0.000000,1024.000000) scale(0.100000,-0.100000)"
fill="#000000" stroke="none">
<path d="M0 5120 l0 -5120 5120 0 5120 0 0 5120 0 5120 -5120 0 -5120 0 0
-5120z m4356 971 c414 -1382 754 -2515 756 -2516 2 -2 345 1130 762 2516 l760
2519 768 0 c422 0 768 -1 768 -3 0 -2 -1796 -5162 -2233 -6414 l-102 -293
-720 0 -720 0 -1159 3343 c-637 1838 -1161 3348 -1164 3355 -3 10 151 12 763
10 l768 -3 753 -2514z"/>
</g>
</svg>
